<?xml version="1.0" encoding="UTF-8"?>
<svg width="32px" height="32px" viewBox="0 0 32 32" version="1.1" xmlns="http://www.w3.org/2000/svg" xmlns:xlink="http://www.w3.org/1999/xlink">
    <title>数据</title>
    <g id="页面-1" stroke="none" stroke-width="1" fill="none" fill-rule="evenodd">
        <g id="4-1" transform="translate(-32.000000, -16.000000)" fill-rule="nonzero">
            <g id="顶部导航">
                <g id="数据" transform="translate(32.000000, 16.000000)">
                    <rect id="矩形" fill="#000000" opacity="0" x="0" y="0" width="32" height="32"></rect>
                    <path d="M16,1.33333334 C7.86666666,1.33333334 1.33333334,7.86666666 1.33333334,16 C1.33333334,24.1333333 7.86666669,30.6666667 16,30.6666667 C24.1333333,30.6666667 30.6666667,24.1333333 30.6666667,16 C30.6666667,7.86666669 24.1333333,1.33333334 16,1.33333334 Z M23.3333333,4.86666666 C23.3333333,5 23.3333333,5.2 23.3333333,5.33333331 C23.3333333,6.73333331 23.2,8.06666666 22.9333333,9.39999997 C22,9.6 21.3333333,10.4 21.3333333,11.3333333 C21.3333333,11.8666667 21.5333333,12.4 21.9333333,12.7333333 C21.4666667,13.8 21,14.8666667 20.3333333,15.8666667 C17.8666667,13.0666667 16.1333333,9.53333334 15.5333333,5.60000003 C17.0666667,4.66666669 18.7333333,3.93333337 20.4666667,3.46666669 C21.4666667,3.8 22.4666667,4.26666666 23.3333333,4.86666666 Z M20.5333333,18 C21.7333333,19.1333333 23,20.1333333 24.4,20.9333333 C23,21.2 21.5333333,21.3333333 20,21.3333333 C19.3333333,21.3333333 18.6666667,21.2666667 18,21.2666667 C18,21.1333333 18,21 17.9333333,20.8666667 C18.8666667,20 19.7333333,19 20.5333333,18 Z M16,2.66666666 C16.7333333,2.66666666 17.4666667,2.73333331 18.2,2.86666666 C17.2666667,3.26666666 16.3333333,3.66666666 15.4,4.13333331 C15.3333333,3.66666666 15.3333333,3.2 15.3333333,2.73333334 C15.5333333,2.66666666 15.8,2.66666666 16,2.66666666 Z M19.6,17 C18.8666667,18 18.0666667,18.8666667 17.2,19.7333333 C16.8666667,19.4666667 16.4666667,19.3333333 16,19.3333333 C15.1333333,19.3333333 14.4,19.8666667 14.1333333,20.6666667 C11.4666667,20 8.93333334,19 6.66666669,17.6 C7.26666669,15.3333334 8.26666669,13.2 9.53333334,11.3333334 C9.66666669,11.3333334 9.8,11.4 10,11.4 C11.1333333,11.4 12,10.5333334 12,9.40000003 C12,9.13333337 11.9333333,8.86666669 11.8666667,8.60000003 C12.6666667,7.80000003 13.4666667,7.13333337 14.3333333,6.46666669 C15.0666667,10.4666667 16.9333333,14.0666667 19.6,17 Z M4.66666666,23 C3.46666666,21 2.73333331,18.7333333 2.66666666,16.2666667 C3.46666666,16.9333333 4.26666666,17.6 5.13333331,18.1333333 C4.86666666,19.6 4.66666666,21.1333333 4.66666666,22.6666667 C4.66666666,22.8 4.66666666,22.9333333 4.66666666,23 Z M5.53333334,16.8 C4.53333334,16.1333333 3.66666669,15.4 2.8,14.6 C3.46666666,8.6 8.13333334,3.8 14.0666667,2.86666666 C14.0666667,3.6 14.1333333,4.26666666 14.2,5 C13.0666667,5.8 12,6.66666666 11,7.6 C10.6666667,7.4 10.3333333,7.33333334 10,7.33333334 C8.86666666,7.33333334 8,8.2 8,9.33333334 C8,9.8 8.2,10.2 8.46666666,10.6 C7.13333334,12.4666667 6.13333334,14.5333333 5.53333334,16.8 Z M6.13333334,24.9333333 C6.06666666,24.2 6,23.4666667 6,22.6666667 C6,21.4 6.13333334,20.1333333 6.4,18.9333333 C8.8,20.3333333 11.4,21.4 14.1333333,22 C14.1333333,22.0666666 14.1333333,22.0666666 14.2,22.1333333 C11.8666667,23.6666667 9.2,24.6666667 6.33333334,25.1333333 C6.2,25.0666667 6.2,25 6.13333334,24.9333333 Z M16,29.3333333 C12.7333333,29.3333333 9.8,28.1333333 7.46666666,26.2 C10.2666667,25.6666667 12.8,24.6 15.0666667,23.0666667 C15.3333333,23.2666667 15.6666667,23.3333333 16,23.3333333 C16.6666667,23.3333333 17.2,23 17.6,22.5333333 C18.4,22.6 19.2,22.6666667 20,22.6666667 C22.1333333,22.6666667 24.2,22.4 26.2,21.9333333 C26.6666667,22.1333333 27.1333333,22.4 27.6,22.5333333 C25.3333333,26.6 21,29.3333333 16,29.3333333 Z M26.3333333,20.5333333 C24.4666667,19.6 22.7333333,18.3333333 21.2666667,16.8666667 C22,15.7333333 22.6,14.5333333 23.1333333,13.3333333 C23.2,13.3333333 23.2666667,13.3333333 23.3333333,13.3333333 C24.4666667,13.3333333 25.3333333,12.4666667 25.3333333,11.3333333 C25.3333333,10.5333333 24.8666667,9.86666669 24.2,9.53333334 C24.4666667,8.33333334 24.6,7.13333334 24.6,5.86666669 C27.4666667,8.33333334 29.2666667,11.9333333 29.2666667,16 C29.2666667,17.3333334 29.0666667,18.5333334 28.7333333,19.7333334 C28,20.0666667 27.2,20.3333333 26.3333333,20.5333333 Z" id="形状" fill="#2868F0"></path>
                </g>
            </g>
        </g>
    </g>
</svg>