<?xml version="1.0" encoding="UTF-8"?>
<svg width="24px" height="24px" viewBox="0 0 24 24" version="1.1" xmlns="http://www.w3.org/2000/svg" xmlns:xlink="http://www.w3.org/1999/xlink">
    <title>info-circle</title>
    <g id="页面-1" stroke="none" stroke-width="1" fill="none" fill-rule="evenodd">
        <g id="1-2" transform="translate(-272.000000, -160.000000)" fill="#000000" fill-rule="nonzero">
            <g id="info-circle" transform="translate(272.000000, 160.000000)">
                <rect id="矩形" opacity="0" x="0" y="0" width="24" height="24"></rect>
                <path d="M12,1.5 C6.2015625,1.5 1.5,6.2015625 1.5,12 C1.5,17.7984375 6.2015625,22.5 12,22.5 C17.7984375,22.5 22.5,17.7984375 22.5,12 C22.5,6.2015625 17.7984375,1.5 12,1.5 Z M12,20.71875 C7.1859375,20.71875 3.28125,16.8140625 3.28125,12 C3.28125,7.1859375 7.1859375,3.28125 12,3.28125 C16.8140625,3.28125 20.71875,7.1859375 20.71875,12 C20.71875,16.8140625 16.8140625,20.71875 12,20.71875 Z" id="形状" fill-opacity="0.45"></path>
                <path d="M10.875,7.875 C10.875,8.49632034 11.3786797,9 12,9 C12.6213203,9 13.125,8.49632034 13.125,7.875 C13.125,7.25367966 12.6213203,6.75 12,6.75 C11.3786797,6.75 10.875,7.25367966 10.875,7.875 Z" id="路径" fill-opacity="0.45"></path>
                <path d="M12.5625,10.5 L11.4375,10.5 C11.334375,10.5 11.25,10.584375 11.25,10.6875 L11.25,17.0625 C11.25,17.165625 11.334375,17.25 11.4375,17.25 L12.5625,17.25 C12.665625,17.25 12.75,17.165625 12.75,17.0625 L12.75,10.6875 C12.75,10.584375 12.665625,10.5 12.5625,10.5 Z" id="路径" fill-opacity="0.45"></path>
            </g>
        </g>
    </g>
</svg>